<mxfile host="app.diagrams.net" modified="2024-02-08T09:27:38.772Z" agent="Mozilla/5.0 (Windows NT 10.0; Win64; x64) AppleWebKit/537.36 (KHTML, like Gecko) Chrome/121.0.0.0 Safari/537.36 Edg/121.0.0.0" version="23.1.2" etag="JMPrNs1lBG1PNoqAuXS0" type="github">
  <diagram name="Page-1" id="CFGyKNihGN9XRP8D8J0x">
    <mxGraphModel>
      <root>
        <mxCell id="0" />
        <mxCell id="1" parent="0" />
        <mxCell id="2" value="Start" style="whiteSpace=wrap;strokeWidth=2;" vertex="1" parent="1">
          <mxGeometry y="72" width="50" height="34" as="geometry" />
        </mxCell>
        <mxCell id="3" value="Enter Username" style="whiteSpace=wrap;strokeWidth=2;" vertex="1" parent="1">
          <mxGeometry x="100" y="72" width="129" height="34" as="geometry" />
        </mxCell>
        <mxCell id="4" value="Enter Password" style="whiteSpace=wrap;strokeWidth=2;" vertex="1" parent="1">
          <mxGeometry x="280" y="72" width="124" height="34" as="geometry" />
        </mxCell>
        <mxCell id="5" value="Password Expired?" style="rhombus;strokeWidth=2;whiteSpace=wrap;" vertex="1" parent="1">
          <mxGeometry x="453" width="179" height="179" as="geometry" />
        </mxCell>
        <mxCell id="6" value="Change Password" style="whiteSpace=wrap;strokeWidth=2;" vertex="1" parent="1">
          <mxGeometry x="716" y="31" width="137" height="34" as="geometry" />
        </mxCell>
        <mxCell id="7" value="Enter New Password" style="whiteSpace=wrap;strokeWidth=2;" vertex="1" parent="1">
          <mxGeometry x="705" y="114" width="159" height="34" as="geometry" />
        </mxCell>
        <mxCell id="8" value="Login Attempt Valid?" style="rhombus;strokeWidth=2;whiteSpace=wrap;" vertex="1" parent="1">
          <mxGeometry x="915" y="33" width="196" height="196" as="geometry" />
        </mxCell>
        <mxCell id="9" value="Login Successful" style="whiteSpace=wrap;strokeWidth=2;" vertex="1" parent="1">
          <mxGeometry x="1610" y="114" width="131" height="34" as="geometry" />
        </mxCell>
        <mxCell id="10" value="Prompt Enable?" style="rhombus;strokeWidth=2;whiteSpace=wrap;" vertex="1" parent="1">
          <mxGeometry x="1179" y="109" width="159" height="159" as="geometry" />
        </mxCell>
        <mxCell id="11" value="Enter Prompt Key" style="whiteSpace=wrap;strokeWidth=2;" vertex="1" parent="1">
          <mxGeometry x="1416" y="213" width="140" height="34" as="geometry" />
        </mxCell>
        <mxCell id="12" value="Error: Login Failed" style="whiteSpace=wrap;strokeWidth=2;" vertex="1" parent="1">
          <mxGeometry x="1412" y="130" width="148" height="34" as="geometry" />
        </mxCell>
        <mxCell id="13" value="" style="curved=1;startArrow=none;endArrow=block;exitX=1.0066146087646484;exitY=0.5083104301901424;entryX=0.00256380184676296;entryY=0.5083104301901424;" edge="1" parent="1" source="2" target="3">
          <mxGeometry relative="1" as="geometry">
            <Array as="points" />
          </mxGeometry>
        </mxCell>
        <mxCell id="14" value="" style="curved=1;startArrow=none;endArrow=block;exitX=1.005470778590949;exitY=0.5083104301901424;entryX=-0.002373141627157888;entryY=0.5083104301901424;" edge="1" parent="1" source="3" target="4">
          <mxGeometry relative="1" as="geometry">
            <Array as="points" />
          </mxGeometry>
        </mxCell>
        <mxCell id="15" value="" style="curved=1;startArrow=none;endArrow=block;exitX=0.9942666638282037;exitY=0.5083104301901424;entryX=0.0016148956128338862;entryY=0.49878522137689857;" edge="1" parent="1" source="4" target="5">
          <mxGeometry relative="1" as="geometry">
            <Array as="points" />
          </mxGeometry>
        </mxCell>
        <mxCell id="16" value="Yes" style="curved=1;startArrow=none;endArrow=block;exitX=0.999185338366631;exitY=0.3332294439899008;entryX=0.002813311388892849;entryY=0.48380060756907745;" edge="1" parent="1" source="5" target="6">
          <mxGeometry relative="1" as="geometry">
            <Array as="points">
              <mxPoint x="669" y="47" />
            </Array>
          </mxGeometry>
        </mxCell>
        <mxCell id="17" value="No" style="curved=1;startArrow=none;endArrow=block;exitX=0.999185338366631;exitY=0.6643409987638964;entryX=0.0022602801053029187;entryY=0.5034084881053251;" edge="1" parent="1" source="5" target="7">
          <mxGeometry relative="1" as="geometry">
            <Array as="points">
              <mxPoint x="669" y="131" />
            </Array>
          </mxGeometry>
        </mxCell>
        <mxCell id="18" value="" style="curved=1;startArrow=none;endArrow=block;exitX=1.003832607149328;exitY=0.5034084881053251;entryX=-0.001992936037024673;entryY=0.5005912683448013;" edge="1" parent="1" source="7" target="8">
          <mxGeometry relative="1" as="geometry">
            <Array as="points" />
          </mxGeometry>
        </mxCell>
        <mxCell id="19" value="Yes" style="curved=1;startArrow=none;endArrow=block;exitX=0.9958679530085349;exitY=0.24495525299576354;entryX=0.32688253592382593;entryY=0.008310430190142463;" edge="1" parent="1" source="8" target="9">
          <mxGeometry relative="1" as="geometry">
            <Array as="points">
              <mxPoint x="1145" y="63" />
              <mxPoint x="1585" y="63" />
            </Array>
          </mxGeometry>
        </mxCell>
        <mxCell id="20" value="No" style="curved=1;startArrow=none;endArrow=block;exitX=0.9958679530085349;exitY=0.716684571936389;entryX=0.0004259385402847386;entryY=0.4992834726969401;" edge="1" parent="1" source="8" target="10">
          <mxGeometry relative="1" as="geometry">
            <Array as="points">
              <mxPoint x="1145" y="188" />
            </Array>
          </mxGeometry>
        </mxCell>
        <mxCell id="21" value="Yes" style="curved=1;startArrow=none;endArrow=block;exitX=1.0009337011373267;exitY=0.6792366323402012;entryX=-0.0028736931937081473;entryY=0.5064531214096967;" edge="1" parent="1" source="10" target="11">
          <mxGeometry relative="1" as="geometry">
            <Array as="points">
              <mxPoint x="1375" y="230" />
            </Array>
          </mxGeometry>
        </mxCell>
        <mxCell id="22" value="No" style="curved=1;startArrow=none;endArrow=block;exitX=1.0009337011373267;exitY=0.31933031305367904;entryX=-0.002340084797627217;entryY=0.486845240873449;" edge="1" parent="1" source="10" target="12">
          <mxGeometry relative="1" as="geometry">
            <Array as="points">
              <mxPoint x="1375" y="147" />
            </Array>
          </mxGeometry>
        </mxCell>
        <mxCell id="23" value="" style="curved=1;startArrow=none;endArrow=block;exitX=0.9985213960920062;exitY=0.5064531214096967;entryX=0.3812432263567723;entryY=0.9985065460205078;" edge="1" parent="1" source="11" target="9">
          <mxGeometry relative="1" as="geometry">
            <Array as="points">
              <mxPoint x="1585" y="230" />
            </Array>
          </mxGeometry>
        </mxCell>
      </root>
    </mxGraphModel>
  </diagram>
</mxfile>
